<?xml version="1.0" encoding="UTF-8" standalone="no"?>
<!DOCTYPE svg PUBLIC "-//W3C//DTD SVG 1.1//EN"
 "http://www.w3.org/Graphics/SVG/1.1/DTD/svg11.dtd">
<!-- Generated by graphviz version 2.36.0 (20140111.2315)
 -->
<!-- Title: G Pages: 1 -->
<svg width="354pt" height="204pt"
 viewBox="0.00 0.00 354.00 204.00" xmlns="http://www.w3.org/2000/svg" xmlns:xlink="http://www.w3.org/1999/xlink">
<g id="graph0" class="graph" transform="scale(1 1) rotate(0) translate(4 200)">
<title>G</title>
<polygon fill="white" stroke="none" points="-4,4 -4,-200 350,-200 350,4 -4,4"/>
<g id="clust1" class="cluster"><title>cluster_Global</title>
<path fill="none" stroke="gray" d="M192,-8C192,-8 326,-8 326,-8 332,-8 338,-14 338,-20 338,-20 338,-176 338,-176 338,-182 332,-188 326,-188 326,-188 192,-188 192,-188 186,-188 180,-182 180,-176 180,-176 180,-20 180,-20 180,-14 186,-8 192,-8"/>
<text text-anchor="middle" x="259" y="-175.2" font-family="Times,serif" font-size="11.00" fill="gray">Global</text>
</g>
<!-- \\Form2Helper -->
<g id="node1" class="node"><title>\\Form2Helper</title>
<polygon fill="none" stroke="black" points="303.5,-160 214.5,-160 214.5,-124 303.5,-124 303.5,-160"/>
<text text-anchor="middle" x="259" y="-139.2" font-family="Courier,monospace" font-size="11.00">Form2Helper</text>
</g>
<!-- \\FormHelper -->
<g id="node4" class="node"><title>\\FormHelper</title>
<ellipse fill="none" stroke="black" cx="58" cy="-142" rx="57.6901" ry="18"/>
<text text-anchor="middle" x="58" y="-138.3" font-family="Times,serif" font-size="14.00" fill="gray">\FormHelper</text>
</g>
<!-- \\Form2Helper&#45;&gt;\\FormHelper -->
<g id="edge1" class="edge"><title>\\Form2Helper&#45;&gt;\\FormHelper</title>
<path fill="none" stroke="black" d="M214.329,-142C188.538,-142 155.348,-142 126.273,-142"/>
<polygon fill="none" stroke="black" points="126.18,-138.5 116.18,-142 126.179,-145.5 126.18,-138.5"/>
</g>
<!-- \\RuoliUtentiActions -->
<g id="node2" class="node"><title>\\RuoliUtentiActions</title>
<polygon fill="none" stroke="black" points="326.5,-106 191.5,-106 191.5,-70 326.5,-70 326.5,-106"/>
<text text-anchor="middle" x="259" y="-85.2" font-family="Courier,monospace" font-size="11.00">RuoliUtentiActions</text>
</g>
<!-- \\MySqlFunctionsClass -->
<g id="node3" class="node"><title>\\MySqlFunctionsClass</title>
<polygon fill="none" stroke="black" points="330,-52 188,-52 188,-16 330,-16 330,-52"/>
<text text-anchor="middle" x="259" y="-31.2" font-family="Courier,monospace" font-size="11.00">MySqlFunctionsClass</text>
</g>
</g>
</svg>
